<?xml version="1.0" standalone="no"?>
<!DOCTYPE svg PUBLIC "-//W3C//DTD SVG 1.1//EN" "http://www.w3.org/Graphics/SVG/1.1/DTD/svg11.dtd" >
<!--
2013-9-30: Created.
-->
<svg>
<metadata>
Created by iconfont
</metadata>
<defs>

<font id="iconfont" horiz-adv-x="1024" >
  <font-face
    font-family="iconfont"
    font-weight="500"
    font-stretch="normal"
    units-per-em="1024"
    ascent="896"
    descent="-128"
  />
    <missing-glyph />
    
    <glyph glyph-name="x" unicode="x" horiz-adv-x="1001"
d="M281 543q-27 -1 -53 -1h-83q-18 0 -36.5 -6t-32.5 -18.5t-23 -32t-9 -45.5v-76h912v41q0 16 -0.5 30t-0.5 18q0 13 -5 29t-17 29.5t-31.5 22.5t-49.5 9h-133v-97h-438v97zM955 310v-52q0 -23 0.5 -52t0.5 -58t-10.5 -47.5t-26 -30t-33 -16t-31.5 -4.5q-14 -1 -29.5 -0.5
t-29.5 0.5h-32l-45 128h-439l-44 -128h-29h-34q-20 0 -45 1q-25 0 -41 9.5t-25.5 23t-13.5 29.5t-4 30v167h911zM163 247q-12 0 -21 -8.5t-9 -21.5t9 -21.5t21 -8.5q13 0 22 8.5t9 21.5t-9 21.5t-22 8.5zM316 123q-8 -26 -14 -48q-5 -19 -10.5 -37t-7.5 -25t-3 -15t1 -14.5
t9.5 -10.5t21.5 -4h37h67h81h80h64h36q23 0 34 12t2 38q-5 13 -9.5 30.5t-9.5 34.5q-5 19 -11 39h-368zM336 498v228q0 11 2.5 23t10 21.5t20.5 15.5t34 6h188q31 0 51.5 -14.5t20.5 -52.5v-227h-327z" />
    

    
    <glyph glyph-name="circle" unicode="&#58897;" d="M512 384m-512 0a34 34 0 1 1 1024 0 34 34 0 1 1-1024 0Z"  horiz-adv-x="1024" />

    
    <glyph glyph-name="dianhua" unicode="&#58898;" d="M752.743335-211.527131c-66.033744 0-151.285196 43.989061-211.175742 80.903517-80.205473 49.421932-166.609413 117.797502-243.302148 192.518927l-0.276352 0.276352-24.351709 24.355803c-74.725519 76.686593-143.094948 163.096675-192.525068 243.302148C44.206048 389.722209 0.210846 474.971613 0.210846 541.007405c0 70.664172 50.531433 145.66809 72.256777 174.631803 16.949575 22.603528 76.176878 96.360793 126.499512 96.360793 20.664971 0 42.918454-13.52486 72.16466-43.856003 25.868573-26.818404 50.691103-60.156663 66.956964-83.400918 21.848166-31.20728 42.050505-63.882295 56.897759-92.010811 24.03851-45.540725 26.820451-65.069584 26.820451-75.798174 0-21.65165-11.309952-40.431288-33.60847-55.812823-14.683491-10.126757-32.308593-17.752019-49.352333-25.129588-11.496234-4.972285-29.85418-12.908698-36.855091-18.491004 2.444178-10.345792 13.119545-35.332086 41.976811-77.695789 26.888004-39.473268 61.657151-82.252523 93.067089-114.509939 32.251275-31.405844 75.024389-66.179085 114.509939-93.067089 42.351421-28.842937 67.337715-39.524445 77.691695-41.97067 5.576165 7.000912 13.518719 25.352716 18.491004 36.84895 7.371428 17.047834 14.994642 34.674983 25.129588 49.358474 15.381535 22.298517 34.161173 33.602329 55.812823 33.602329 10.72859 0 30.257449-2.779894 75.804315-26.81431 28.122375-14.847255 60.803531-35.049593 92.006717-56.897759 23.244255-16.272002 56.580467-41.094532 83.405012-66.956964 30.327048-29.246206 43.851909-51.499688 43.851909-72.16466 0-50.322634-73.751123-109.549937-96.354651-126.501559C898.409378-160.995698 823.407507-211.527131 752.743335-211.527131L752.743335-211.527131zM340.580019 105.04713c73.57303-71.669273 156.200163-137.084809 232.696381-184.22428 74.160534-45.704489 139.576069-71.916967 179.466935-71.916967 35.534744 0 86.191047 21.702826 135.516768 58.044108 21.622991 15.936286 41.303331 33.684211 55.415695 49.970542 13.242368 15.289418 18.083641 25.260599 19.311871 29.287147-5.115578 10.992659-35.512226 45.366726-106.454797 94.305554-27.829647 19.195189-56.596843 36.836668-81.01201 49.669625-30.654576 16.116426-43.430216 18.900414-46.355451 19.356906-1.136113-0.779926-4.474852-3.570055-9.551536-12.077596-5.680564-9.526971-11.142094-22.153177-16.419389-34.35769-6.499384-15.031489-13.225991-30.574741-21.473556-43.114971-13.410226-20.398855-29.876697-30.746694-48.936781-30.758976-0.345951 0-0.704185 0.006141-1.072654 0.018423-9.273137 0.196517-37.518335 0.796303-114.194694 53.016552-42.326856 28.838843-88.295415 66.22412-122.94788 100.022965l-0.542468 0.536327c-33.792704 34.662701-71.177981 80.625118-100.01273 122.94788-52.226391 76.676358-52.830271 104.919509-53.026788 114.198788-0.415551 19.408083 9.829935 36.163188 30.437589 49.808825 12.601641 8.341729 28.27181 15.117465 43.424075 21.676214 12.208607 5.277295 24.828671 10.740872 34.35769 16.415295 8.507541 5.070543 11.305858 8.415423 12.077596 9.551536-0.456492 2.925235-3.24048 15.698828-19.354859 46.355451-12.832958 24.409026-30.476483 53.182363-49.671672 81.005869C243.316477 715.737466 208.940364 746.132067 197.947704 751.247645c-4.026548-1.232324-13.999776-6.073598-29.289194-19.315965-16.288378-14.106223-34.034256-33.790657-49.964401-55.415695-36.347423-49.31958-58.044108-99.975883-58.044108-135.510627 0-39.88882 26.208383-105.300261 71.910825-179.466935 47.143565-76.496218 112.561148-159.123351 184.22428-232.696381L340.580019 105.04713 340.580019 105.04713zM340.580019 105.04713"  horiz-adv-x="1024" />

    
    <glyph glyph-name="paperAirplane" unicode="&#58982;" d="M951.351911 788.219251c-2.75781 2.182712-6.531763 2.568499-9.607822 0.943488L74.131883 345.489918c-3.229554-1.658779-5.132904-5.081739-4.852518-8.697079 0.318248-3.613294 2.759857-6.686283 6.217608-7.789407l290.425555-92.314499c3.055592-0.958838 6.355755-0.242524 8.698103 1.888L776.396227 600.5684309999999 455.602014 220.85019999999997c-1.940189-2.287089-2.602268-5.41329-1.746784-8.293897 0.853437-2.882654 3.090385-5.154393 5.967922-6.02625l322.267774-98.165764c0.832971-0.26299 1.713015-0.38374 2.583848-0.38374 1.532913 0 3.069919 0.402159 4.435009 1.171686 2.128477 1.219781 3.683902 3.263323 4.259 5.65786L954.491415 779.087267C955.317223 782.490783 954.089255 786.052912 951.351911 788.219251zM554.116725 136.02937199999997l-89.069595 27.399023c-2.690272 0.873903-5.655813 0.348947-7.928576-1.342578-2.288113-1.697665-3.63376-4.367471-3.63376-7.196912l0-168.107719c0-3.983731 2.622734-7.475252 6.460132-8.591679 0.805342-0.228197 1.644453-0.349971 2.486634-0.349971 3.00238 0 5.881964 1.51961 7.544837 4.157693l89.059362 140.703579c1.503237 2.359744 1.818415 5.276167 0.841158 7.877411C558.916031 133.19788400000004 556.784484 135.206634 554.116725 136.02937199999997z"  horiz-adv-x="1024" />

    
    <glyph glyph-name="diamond" unicode="&#58934;" d="M505.165395 896l505.165396-505.165395-505.165396-505.165396L0 390.834605z"  horiz-adv-x="1024" />

    
    <glyph glyph-name="HomeLine" unicode="&#58915;" d="M1059.291429 289.865143l26.258285 25.453714L551.899429 866.816 18.139429 315.245714l26.294857-25.417143L551.862857 814.226286zM169.289143 309.942857L551.862857 705.28l382.537143-395.337143v-401.993143H169.508571L169.325714 309.942857z m36.790857-365.421714H897.828571V295.131429l-345.965714 357.558857-346.038857-357.558857 0.219429-350.610286z"  horiz-adv-x="1097" />

    
    <glyph glyph-name="HomeGreen" unicode="&#58916;" d="M1084.871111 254.255407l54.537482 52.717037L572.302222 893.003852 5.195852 306.934519l54.499555-52.717038L572.340148 783.890963zM194.522074 280.576l0.227556-390.257778h755.33274v390.257778l-377.742222 390.371556z"  horiz-adv-x="1139" />

    
    <glyph glyph-name="BlogLine" unicode="&#58919;" d="M1159.023461 563.041739l23.041278 12.38567v19.89571l-23.041278 12.346351-41.600123-22.294206 41.600123-22.333525zM621.170833 851.332949L124.957647 585.375264l496.213186-265.957685 496.213186 265.957685-496.213186 265.957685z m579.492071-265.957685l-579.492071-310.585416L41.718082 585.375264 621.170833 895.96068l579.492071-310.624736zM50.997504 437.140422l-18.598164-34.679876 588.771493-315.539684 588.771493 315.539684-18.598164 34.679876L621.249472 131.509273zM50.997504 240.817725l-18.598164-34.679876 588.771493-315.539684 588.771493 315.539684-18.598164 34.679876-570.13401-305.591829z"  horiz-adv-x="1218" />

    
    <glyph glyph-name="ContactLine" unicode="&#58921;" d="M30.416593 443.012741C30.416593 681.566815 248.869926 874.002963 517.271704 874.002963s486.855111-192.360296 486.855111-430.952296c0-238.554074-218.453333-430.91437-486.855111-430.914371a544.237037 544.237037 0 0 0-118.063408 13.236148L192.587852-111.69185200000004l-15.284148 246.746074C84.15763 215.53303700000004 30.416593 325.404444 30.416593 443.012741z m361.434074-377.02163l8.040296-1.896296c39.139556-9.253926 78.241185-14.032593 117.380741-14.032593 248.414815 0 448.929185 176.507259 448.929185 392.950519 0 216.481185-200.476444 393.02637-448.929185 393.02637-248.414815 0-448.929185-176.545185-448.929185-393.02637 0-108.581926 50.896593-210.223407 139.567407-284.178963l6.219852-5.233778 12.250074-197.366519 165.508741 109.75763zM329.197037 441.344a16.042667 16.042667 0 1 1-32.047407 0 16.042667 16.042667 0 0 1 32.047407 0z m37.925926 0a53.968593 53.968593 0 1 0-107.899259 0 53.968593 53.968593 0 0 0 107.899259 0zM533.276444 441.344a16.042667 16.042667 0 1 1-32.047407 0 16.042667 16.042667 0 0 1 32.047407 0z m37.925926 0a53.968593 53.968593 0 1 0-107.899259 0 53.968593 53.968593 0 0 0 107.899259 0zM737.393778 441.344a16.042667 16.042667 0 1 1-32.047408 0 16.042667 16.042667 0 0 1 32.047408 0z m37.925926 0a53.968593 53.968593 0 1 0-107.89926 0 53.968593 53.968593 0 0 0 107.89926 0z"  horiz-adv-x="1024" />

    
    <glyph glyph-name="contactGreen" unicode="&#58922;" d="M30.416593 443.012741C30.416593 681.566815 248.869926 874.002963 517.271704 874.002963s486.855111-192.360296 486.855111-430.952296c0-238.554074-218.453333-430.91437-486.855111-430.914371a544.237037 544.237037 0 0 0-118.063408 13.236148L192.587852-111.69185200000004l-15.284148 246.746074C84.15763 215.53303700000004 30.416593 325.404444 30.416593 443.012741z m361.434074-377.02163l8.040296-1.896296c39.139556-9.253926 78.241185-14.032593 117.380741-14.032593 248.414815 0 448.929185 176.507259 448.929185 392.950519 0 216.481185-200.476444 393.02637-448.929185 393.02637-248.414815 0-448.929185-176.545185-448.929185-393.02637 0-108.581926 50.896593-210.223407 139.567407-284.178963l6.219852-5.233778 12.250074-197.366519 165.508741 109.75763zM517.30963 855.002074c258.389333 0 467.854222-184.433778 467.854222-411.989333 0-227.479704-209.464889-411.951407-467.892148-411.951408-42.211556 0-82.868148 5.385481-121.742223 14.563556l-186.064592-123.335111-13.729185 221.980444c-89.960296 75.093333-146.356148 181.020444-146.356148 298.742519 0 227.555556 209.502815 411.989333 467.892148 411.989333zM796.444444 440.888889a56.888889 56.888889 0 1 1-113.815703-0.037926A56.888889 56.888889 0 0 1 796.444444 440.888889z m-208.592592 0a56.888889 56.888889 0 1 1-113.815704-0.037926A56.888889 56.888889 0 0 1 587.851852 440.888889zM379.259259 440.888889a56.888889 56.888889 0 1 1-113.815703-0.037926A56.888889 56.888889 0 0 1 379.259259 440.888889z"  horiz-adv-x="1024" />

    
    <glyph glyph-name="contact-skype" unicode="&#58929;" d="M987.401481 193.34636999999998c0-76.534519-29.961481-148.897185-83.816296-202.752a284.065185 284.065185 0 0 0-202.258963-83.77837c-46.231704 0-91.022222 10.998519-131.716741 32.161185-22.186667-3.489185-45.511111-5.082074-70.618074-5.082074a455.111111 455.111111 0 0 0-180.754963 36.901926 463.606519 463.606519 0 0 0-147.000888 99.745185 449.156741 449.156741 0 0 0-99.631408 148.100741 466.678519 466.678519 0 0 0-30.795852 251.06963A286.416593 286.416593 0 0 0 9.481481 599.7985189999999a285.240889 285.240889 0 0 0 83.778371 202.676148A284.178963 284.178963 0 0 0 295.708444 886.518519c43.501037 0 86.357333-10.012444 125.30726-29.165038A464.971852 464.971852 0 0 0 499.105185 864.06637c64.208593 0 125.193481-12.894815 177.569185-38.039703a469.257481 469.257481 0 0 0 147.380149-99.365926 462.317037 462.317037 0 0 0 99.441777-147.228445c24.538074-57.53363 36.864-118.328889 36.864-181.05837 0-26.130963-1.592889-50.213926-5.157926-73.500445a287.857778 287.857778 0 0 0 32.237037-131.527111z m-89.884444 131.678815c4.058074 22.831407 5.916444 46.724741 5.916444 73.348741 0 55.068444-10.808889 108.278519-32.350814 158.871704a405.276444 405.276444 0 0 1-87.115852 129.024 414.454519 414.454519 0 0 1-130.692741 87.912296c-45.624889 21.845333-98.228148 32.995556-154.206815 32.995555-25.524148 0-51.579259-2.541037-77.065481-7.471407l-9.898667-1.896296-8.912592 4.778666a227.934815 227.934815 0 0 1-107.557926 27.041186A227.441778 227.441778 0 0 1 133.499259 762.311111 228.503704 228.503704 0 0 1 66.37037 599.87437c0-38.949926 10.012444-77.368889 28.937482-111.502222l4.892444-8.760889-1.744592-9.936592a409.827556 409.827556 0 0 1 25.6-229.072593 392.912593 392.912593 0 0 1 87.381333-129.820444 407.210667 407.210667 0 0 1 129.327407-87.722667c49.872593-21.428148 103.082667-32.237037 158.226963-32.237037 25.637926 0 48.810667 1.820444 70.276741 5.840593l10.24 1.896296 9.026371-5.12c34.512593-19.569778 72.931556-29.733926 112.791703-29.733926a227.176296 227.176296 0 0 1 162.057482 67.128889 228.503704 228.503704 0 0 1 67.128889 162.512592 233.092741 233.092741 0 0 1-29.809778 112.791704l-4.816593 9.595259 1.668741 9.291852zM489.434074 129.06192599999997C334.65837 129.06192599999997 265.481481 205.21718499999997 265.481481 262.25777800000003c0 29.354667 21.579852 49.796741 51.313778 49.796741 66.294519 0 49.000296-95.194074 172.638815-95.194075 63.184593 0 98.152296 34.398815 98.152296 69.594075 0 21.162667-10.391704 44.600889-52.110222 54.91674l-137.595259 34.398815C287.099259 403.607704 266.922667 463.644444 266.922667 520.040296c0 117.191111 110.098963 161.185185 213.522963 161.185185 95.080296 0 207.454815-52.792889 207.454814-123.069629 0-30.113185-26.472296-47.597037-55.864888-47.597037-56.50963 0-46.117926 78.317037-160.274963 78.317037-56.471704 0-88.177778-25.562074-88.177778-62.198519 0-36.636444 44.373333-48.393481 83.019852-57.230222l101.451852-22.565926c111.236741-24.955259 139.491556-90.187852 139.491555-151.665778 0-95.156148-73.197037-166.229333-220.197926-166.229333l2.085926 0.075852z"  horiz-adv-x="1024" />

    
    <glyph glyph-name="contact-send" unicode="&#58932;" d="M544 618.666667h32V682.666667H170.666667v-64h32zM544 448h32V512H170.666667v-64h32zM544 277.33333300000004h32V341.33333300000004H170.666667v-64h32zM544 106.66666699999996h32V170.66666699999996H170.666667v-64h32zM0-74.66666699999996v-32h64V853.333333H0v-32zM642.261333 660.010667l0.384-32 64 0.725333-0.426666 32-1.834667 160.597333-0.426667 32L640 852.565333l0.384-32zM646.4-64.68266700000004l0.341333-32 64 0.682667-0.384 32-5.973333 544-0.426667 32L640 511.274667l0.341333-32zM672 789.333333h32V853.333333H0v-64h32zM672-106.66666699999996h32V-42.66666699999996H0v-64h32zM870.784 742.954667V824.192l-53.418667-23.808 213.76-192.298667 0.042667 47.573334-213.76-192.128 53.333333-23.765334V603.52l-34.816-3.114667c-7.594667-0.682667-20.650667-2.048-37.333333-4.096-27.861333-3.413333-55.765333-7.509333-81.92-12.416-40.96-7.68-73.984-16.512-97.237333-27.178666-28.373333-13.013333-63.36-33.322667-103.808-59.648-11.306667-7.338667-22.954667-15.104-34.901334-23.253334a2831.36 2831.36 0 0 1-131.712-95.573333l49.536-36.565333c0.938667 2.389333 3.029333 7.509333 6.4 14.890666 5.717333 12.586667 12.8 26.752 21.333334 42.026667a681.642667 681.642667 0 0 0 92.586666 128.597333c85.76 93.610667 193.152 157.312 324.906667 178.176l27.008 4.266667v33.322667z m-32-5.973334l-5.034667 31.573334c-147.072-23.296-267.093333-94.464-362.069333-198.101334a745.173333 745.173333 0 0 1-101.333333-140.714666c-16.128-29.013333-26.496-51.84-31.658667-65.493334L298.666667 258.09066700000005l89.6 69.546666c1.792 1.450667 5.333333 4.138667 10.325333 7.978667a2857.088 2857.088 0 0 0 118.186667 85.333333c11.52 7.850667 22.826667 15.36 33.706666 22.485334 38.058667 24.746667 70.656 43.648 95.616 55.082666 17.365333 7.978667 46.122667 15.658667 82.346667 22.442667 24.704 4.650667 51.285333 8.576 77.866667 11.818667 16 1.962667 28.373333 3.242667 35.328 3.84l-34.858667 31.914666v-200.576l53.376 48 213.76 192.085334 26.496 23.808-26.453333 23.808-213.76 192.298666L806.741333 896v-159.018667h32z"  horiz-adv-x="1109" />

    
    <glyph glyph-name="contact-phone" unicode="&#58935;" d="M149.246588 633.396966l0.105931-2.683587c0-32.132414 11.440552-73.410207 32.768-121.114482 14.477241-32.485517 33.156414-67.019034 54.978207-102.753104a1435.188966 1435.188966 0 0 1 90.041379-130.08331c100.916966-131.954759 197.102345-224.044138 286.260965-282.659311 60.733793-39.90069 111.051034-59.815724 146.184828-65.182896 4.837517-0.776828 10.699034 0.918069 16.807724 4.625655 3.319172 2.048 5.684966 3.990069 6.17931 4.484414l100.740414 104.342069c-0.423724 0.741517-1.235862 2.401103-2.824827 4.731586a41.454345 41.454345 0 0 1-3.531035 4.343172l-148.939034 128.070621a14.053517 14.053517 0 0 1-7.874207 3.213241 48.022069 48.022069 0 0 1-18.891035-2.08331 60.733793 60.733793 0 0 1-7.556414-2.718896l-115.570758-44.032-12.076138 15.254069-235.48469 298.125241-10.593103 13.417931 7.874207 15.183448 58.615172 113.134345c2.612966 5.12 7.768276 29.201655 6.285242 36.157793-1.271172 5.896828-111.404138 136.22731-116.065104 139.122759 1.694897-1.05931-5.12-0.776828-3.742896-0.141242 0 0-28.601379-21.786483-57.944276-44.632275A15160.567172 15160.567172 0 0 1 156.66176 673.897931c-6.214621-14.830345-7.909517-29.307586-7.415172-40.500965z m524.040827-406.598621c2.966069 1.341793 7.450483 3.072 13.170759 4.731586 13.27669 3.848828 27.012414 5.543724 40.748138 3.707586 13.523862-1.836138 25.953103-7.062069 35.804689-15.960276l148.974345-128.105931c3.283862-3.001379 7.521103-7.556414 11.758345-13.559172 11.405241-16.136828 16.666483-34.251034 9.816276-53.459862-1.412414-3.954759-3.354483-7.768276-5.755586-11.334621l-2.930759-3.672276-104.448-108.190896c-3.531034-3.531034-9.074759-8.121379-16.454621-12.605793-15.819034-9.675034-33.474207-14.689103-52.400551-11.793656-117.159724 17.902345-281.246897 125.775448-466.131862 367.58069a1373.996138 1373.996138 0 0 0-29.378207 39.053242 1487.483586 1487.483586 0 0 0-64.158897 96.044137 970.893241 970.893241 0 0 0-58.156138 108.755863C109.663691 541.907862 96.387001 589.78869 96.457622 628.524138A146.537931 146.537931 0 0 0 107.156657 692.859586c1.553655 3.672276 3.283862 7.273931 5.15531 10.769655L114.924932 708.502069l4.307862 3.354483a14363.753931 14363.753931 0 0 0 62.146207 48.657655c45.303172 35.239724 62.993655 48.728276 68.961104 51.588414 14.759724 6.885517 40.571586 5.790897 54.272-2.789518 15.819034-9.780966 135.238621-151.128276 139.899586-172.985379 4.449103-20.621241-3.213241-56.637793-11.087448-71.68l-50.705655-97.915586 212.850758-269.453241 77.718069 29.554758zM457.541208 790.139586a187.603862 187.603862 0 0 0 241.522759-287.037793l34.109793-40.536276A240.569379 240.569379 0 0 1 423.431415 830.675862l34.109793-40.536276zM528.161898 708.57269a83.968 83.968 0 0 0 108.084965-128.529656l34.109794-40.536275a136.933517 136.933517 0 1 1-176.269242 209.566896l34.074483-40.500965z"  horiz-adv-x="1024" />

    
    <glyph glyph-name="ServiceLine" unicode="&#58936;" d="M19.692308-108.50461499999994V717.7058460000001h1215.566769v-826.210461H19.692308z m1176.182154 39.384615V678.321231H59.076923v-747.441231h1136.797539zM853.425231 836.923077v-119.020308h39.384615V876.307692H362.180923v-158.404923h39.384615V836.923077zM530.510769 212.676923v252.731077h193.929846v-252.691692H530.510769z m154.545231 39.384615v173.961847H569.895385v-173.922462h115.12123zM567.532308 312.044308L19.692308 429.607385V717.745231h1215.606154v-288.137846l-548.706462-117.563077v113.979077H567.532308v-113.979077z m628.381538 149.779692V678.360615H59.116308v-216.536615l487.305846-98.697846v102.281846h162.146461v-102.281846l487.345231 98.697846z"  horiz-adv-x="1260" />

    
    <glyph glyph-name="ServiceGreen" unicode="&#58938;" d="M347.805538 896h558.592v-156.750769h347.923693V-128H0V739.249231h347.805538V896z m78.41477-156.750769H832.984615V817.624615H426.220308V739.249231z m328.310154-538.978462h-249.856v132.332308L78.375385 411.017846v-445.873231h1097.491692l-4.962462 445.833847-416.413538-73.452308v-137.216z m-164.076308 77.784616h79.872v132.923077h-79.872v-132.923077z"  horiz-adv-x="1260" />

    
    <glyph glyph-name="threeManager" unicode="&#58881;" d="M363.227429 268.507429c0 46.299429 37.723429 83.858286 84.333714 83.858285h291.254857c46.592 0 84.352-37.558857 84.352-83.858285v-389.357715h31.085714V268.507429c0 63.488-51.712 114.944-115.437714 114.944H447.561143c-63.744 0-115.419429-51.456-115.419429-114.944v-389.357715h31.085715V268.507429zM633.874286 318.72l-6.125715 11.684571 15.561143-344.740571 7.789715 14.171429-64.036572-36.790858h15.488L538.514286-0.1828570000000127l7.789714-14.171429 15.542857 344.740572-6.107428-11.684572 48.457142 36.809143h-18.797714l48.475429-36.809143z m-39.076572 68.699429l-9.398857-7.131429-48.457143-36.809143-5.796571-4.388571-0.329143-7.277715-15.579429-344.740571-0.420571-9.453714 8.228571-4.717715 64-36.809142 7.753143-4.443429 7.753143 4.443429 64.036572 36.809142 8.210285 4.717715-0.438857 9.453714-15.542857 344.740571-0.347429 7.259429-5.796571 4.406857-48.457143 36.809143-9.417143 7.131429zM961.572571 533.705143l-6.125714 11.666286 15.561143-344.722286 7.789714 14.171428-64.036571-36.790857h15.488l-64.036572 36.790857 7.789715-14.171428 15.542857 344.722286-6.107429-11.666286 48.457143 36.790857h-18.779428l48.457142-36.790857z m-39.058285 68.699428l-9.398857-7.131428-48.475429-36.809143-5.796571-4.406857-0.329143-7.277714-15.561143-344.740572-0.438857-9.453714 8.228571-4.717714 64.018286-36.790858 7.753143-4.461714 7.734857 4.461714 64.036571 36.790858 8.210286 4.717714-0.420571 9.453714-15.579429 344.740572-0.329143 7.277714-5.796571 4.388571-48.457143 36.809143-9.398857 7.131429zM775.259429 567.3325709999999h291.254857c46.610286 0 84.352-37.558857 84.352-83.84v-389.357714h31.085714V483.492571c0 63.488-51.693714 114.925714-115.437714 114.925715H775.259429c-19.821714 0-38.948571-4.992-55.917715-14.354286l15.030857-27.209143a84.278857 84.278857 0 0 0 40.886858 10.477714zM209.243429 558.445714l-5.796572-4.388571-0.329143-7.277714-15.579428-344.740572-0.420572-9.453714 8.228572-4.717714 64-36.790858 7.753143-4.461714 7.753142 4.461714 64.036572 36.790858 8.210286 4.717714-0.438858 9.453714-15.542857 344.740572-0.347428 7.277714-5.796572 4.388571-48.457143 36.809143-9.417142 7.131429-9.398858-7.131429-48.457142-36.790857z m48.457142 12.068572l48.475429-36.809143-6.125714 11.666286 15.561143-344.722286 7.789714 14.171428-64.036572-36.790857h15.488l-64.036571 36.790857 7.789714-14.171428 15.542857 344.722286-6.107428-11.666286 48.457143 36.790857h-18.797715zM414.354286 598.4182860000001H123.099429c-63.744 0-115.437714-51.437714-115.437715-114.925715v-389.357714h31.085715V483.492571c0 46.281143 37.741714 83.84 84.352 83.84H414.354286c14.518857 0 28.489143-3.638857 40.886857-10.477714l15.030857 27.209143a115.346286 115.346286 0 0 1-55.917714 14.354286zM754.377143 512.877714c0 88.649143-72.173714 160.512-161.188572 160.512-88.996571 0-161.188571-71.862857-161.188571-160.512 0-88.667429 72.192-160.512 161.188571-160.512 89.014857 0 161.188571 71.844571 161.188572 160.512z m-291.291429 0c0 71.460571 58.24 129.426286 130.102857 129.426286s130.102857-57.965714 130.102858-129.426286c0-71.460571-58.221714-129.426286-130.102858-129.426285-71.862857 0-130.102857 57.965714-130.102857 129.426285zM1082.075429 727.862857c0 88.649143-72.173714 160.493714-161.188572 160.493714-88.996571 0-161.188571-71.844571-161.188571-160.493714 0-88.685714 72.192-160.530286 161.188571-160.530286 89.014857 0 161.188571 71.862857 161.188572 160.530286z m-291.291429 0c0 71.442286 58.24 129.408 130.102857 129.408s130.102857-57.965714 130.102857-129.408c0-71.478857-58.221714-129.444571-130.102857-129.444571-71.862857 0-130.102857 57.965714-130.102857 129.444571zM138.605714 727.862857c0 71.442286 58.24 129.408 130.121143 129.408 71.862857 0 130.102857-57.965714 130.102857-129.408 0-71.478857-58.24-129.444571-130.102857-129.444571S138.605714 656.384 138.605714 727.862857z m291.291429 0c0 88.649143-72.173714 160.493714-161.170286 160.493714-89.014857 0-161.188571-71.844571-161.188571-160.493714 0-88.685714 72.173714-160.530286 161.188571-160.530286 88.996571 0 161.188571 71.862857 161.188572 160.530286z"  horiz-adv-x="1188" />

    
    <glyph glyph-name="complete" unicode="&#58882;" d="M454.69193-91.13599999999997c-227.202246 0-411.396491 184.176281-411.396491 411.378526s184.194246 411.396491 411.396491 411.396492c227.202246 0 411.396491-184.194246 411.396491-411.396492 0-227.202246-184.194246-411.378526-411.396491-411.378526z m0 855.093895C209.632561 763.957895 10.958596 565.3018950000001 10.958596 320.242526c0-245.041404 198.673965-443.715368 443.733334-443.715368s443.733333 198.656 443.733333 443.715368c0 245.059368-198.673965 443.733333-443.733333 443.733334zM433.08014 170.379228l11.425685-11.443649 11.425684 11.443649L1158.629053 873.004912 1135.759719 895.892211 433.08014 193.230596h22.851369L228.711298 420.468772l-22.851368-22.869333z"  horiz-adv-x="1167" />

    
    <glyph glyph-name="shopping" unicode="&#58883;" d="M366.405818 147.735273l15.173818-11.264-164.082036 546.313309-15.1552-20.386909h960.586473l-15.1552 20.386909-164.082037-546.313309 15.1552 11.282618H366.405818z m644.207709-31.650909l3.388509 11.282618 164.082037 546.313309 6.125382 20.368291H181.061818l6.125382-20.368291 164.082036-546.313309 3.369891-11.264H1010.613527zM366.424436-88.21294499999999a101.748364 101.748364 0 1 0 0 203.496727 101.748364 101.748364 0 0 0 0-203.496727z m0 235.147636a133.399273 133.399273 0 1 1 0-266.798546 133.399273 133.399273 0 1 1 0 266.798546zM998.846836-88.21294499999999a101.748364 101.748364 0 1 0 0 203.496727 101.748364 101.748364 0 0 0 0-203.496727z m0 235.147636a133.399273 133.399273 0 1 1 0-266.798546 133.399273 133.399273 0 1 1 0 266.798546zM159.315782 876.525382L155.927273 887.808H0v-31.650909h144.160582l-15.1552 11.264 222.263854-740.054109 30.3104 9.122909zM1116.420655 491.985455V523.636364H255.292509v-31.650909zM1053.249164 307.181382v31.650909H312.133818v-31.650909zM488.224582 131.90981799999997h31.650909V678.241745h-31.650909zM807.470545 131.90981799999997h31.65091V678.241745h-31.65091z"  horiz-adv-x="1191" />

    
    <glyph glyph-name="key" unicode="&#58884;" d="M757.232485 272.78739399999995a96.302545 96.302545 0 0 1-105.363394 20.697212l16.182303-16.384a99.669333 99.669333 0 0 1-20.743758 110.095515 98.676364 98.676364 0 0 1-48.065939 26.515394l6.019879-20.883394 143.484121 143.716849-16.446061-1.008485c70.004364-54.784 159.20097-59.87297 210.028606-8.967758 56.832 56.909576 43.380364 160.566303-27.787636 231.842909-71.183515 71.292121-174.700606 84.759273-231.548121 27.834182-52.844606-52.906667-45.195636-147.052606 14.894545-217.832727l0.682667 16.818424-151.536485-151.769212 21.193697-9.169455a101.872485 101.872485 0 0 1-29.680485 75.558788 101.469091 101.469091 0 0 1-69.073454 29.758061l10.503757-18.40097c38.353455 69.632 32.318061 153.537939-2.404848 188.322909-42.046061 42.123636-94.192485-1.877333-59.019637-55.497697 23.753697-36.196848 18.866424-85.426424-8.952242-125.610666l19.238788 1.427394a41478.050909 41478.050909 0 0 1-91.632485 97.466181c-19.518061 20.526545-18.881939 44.094061-4.080485 73.759031 19.099152 38.275879 55.140848 73.898667 103.268849 106.123636a624.655515 624.655515 0 0 0 83.549091 46.576485c9.976242 4.654545 19.238788 8.657455 27.523878 12.024242 4.933818 2.01697 8.424727 3.351273 10.20897 4.00291L624.034909 883.882667h-70.593939c-1.923879 0-5.507879 0-10.534788-0.046546a3363.84 3363.84 0 0 1-111.709091-2.296242c-40.851394-1.551515-73.541818-3.816727-95.356121-6.935273-62.49503-8.936727-86.574545-50.455273-81.144243-107.364848 1.241212-13.141333-4.654545-25.041455-15.003151-33.140364-4.282182-3.351273-8.874667-5.60097-12.629334-6.407758-3.366788 0.527515-4.608 5.957818-5.647515 18.013091-1.768727 20.852364-3.273697 27.989333-10.472727 35.203879-18.46303 18.494061-61.781333 16.973576-88.017455-9.278061-26.205091-26.251636-27.725576-69.616485-9.24703-88.09503 7.19903-7.214545 14.336-8.73503 33.621333-10.364121 13.560242-1.163636 18.97503-2.420364 20.588607-4.033939a47.010909 47.010909 0 0 0-7.493819-14.444607c-8.067879-10.364121-19.952485-16.259879-33.047272-15.018666-56.832 5.430303-98.304-18.680242-107.225212-81.252849-3.118545-21.860848-5.383758-54.613333-6.935273-95.495757a3379.23103 3379.23103 0 0 1-2.032485-84.169697 3858.773333 3858.773333 0 0 1-0.310303-38.275879v-70.795636l24.09503 66.56c0.651636 1.815273 1.985939 5.306182 3.987394 10.24 3.366788 8.300606 7.369697 17.578667 12.008727 27.570424a626.191515 626.191515 0 0 0 46.52994 83.673212c32.147394 48.205576 67.723636 84.293818 105.95297 103.439515 29.602909 14.801455 53.108364 15.437576 73.603878-4.096 7.726545-7.385212 40.230788-38.043152 97.295515-91.772121l1.427394 19.223273c-40.091152-27.849697-89.243152-32.73697-125.362424-8.967758-53.573818 35.250424-97.497212-16.958061-55.466667-59.066182 34.738424-34.78497 118.551273-40.835879 188.090182-2.404848l-18.416485 10.503757a101.593212 101.593212 0 0 1 105.177213-98.893575l-9.18497 21.178181L87.319273-26.94981800000005l-8.750546-8.766061 8.750546-8.76606 31.868121-31.914667 38.974061-39.020606 8.781575-8.797091 8.781576 8.797091 48.205576 48.252121 8.750545 8.781576-8.750545 8.76606-38.974061 39.036122v-17.532122l41.394424 41.456485h-17.563151l38.974061-39.020606 8.781575-8.797091 8.781576 8.797091 48.190061 48.252121 8.76606 8.781576-8.76606 8.766061-38.974061 39.036121v-17.532121l41.409939 41.456485H298.356364l38.97406-39.036122 8.781576-8.79709 8.781576 8.79709 48.205576 48.283152 8.76606 8.766061-8.76606 8.76606-38.974061 39.036121v-17.547636l137.060848 137.262545-20.883394 6.019879a98.955636 98.955636 0 0 1 26.453334-48.128 99.343515 99.343515 0 0 1 109.986909-20.790303l-16.41503 16.166788a96.628364 96.628364 0 0 1 20.666181-105.472 96.28703 96.28703 0 0 1 126.758788-8.22303l-16.089212 0.775757a3080968.797091 3080968.797091 0 0 1 233.316849-219.446303L985.212121-109.50593900000001l17.563152 17.532121-18.990546 20.247273a2801618.788848 2801618.788848 0 0 1-219.136 233.658181l-18.106182-16.973575a3081714.470788 3081714.470788 0 0 0 219.136-233.658182l18.990546-20.247273 17.547636 17.532121-20.216242 19.006061a2799551.363879 2799551.363879 0 0 0-233.301333 219.461818l-7.711031 7.245576-8.378182-6.454303a71.462788 71.462788 0 0 0-94.021818 6.097454 71.804121 71.804121 0 0 0-15.344485 78.382546l11.900122 28.485818-28.299637-12.31903a74.519273 74.519273 0 0 0-82.49406 15.546181 74.131394 74.131394 0 0 0-19.828364 36.103758l-4.995879 21.938424-15.887515-15.918545-137.060848-137.262546-8.766061-8.781575 8.766061-8.766061 38.97406-39.020606v17.532121l-48.205576-48.267636h17.563152l-38.958546 39.036121-8.79709 8.797091-8.781576-8.797091-41.394424-41.472-8.750546-8.766061 8.750546-8.781575 38.97406-39.020606v17.532121l-48.19006-48.252121H265.309091l-38.974061 39.020606-8.781575 8.781575-8.797091-8.781575-41.394425-41.472-8.750545-8.766061 8.750545-8.766061 38.974061-39.036121v17.532121l-48.190061-48.252121h17.563152l-38.974061 39.020606-31.852606 31.899152v-17.532121l373.248 373.806545 22.155637 22.186667-31.340606-1.008485a76.784485 76.784485 0 0 0-79.561697 74.81406l-0.589576 20.340364-17.811394-9.836606c-60.400485-33.373091-132.12703-28.206545-158.502788-1.784242-20.697212 20.712727-4.654545 39.796364 24.250182 20.774788 45.381818-29.866667 105.347879-23.893333 153.165576 9.30909l12.567272 8.750546-11.139878 10.488242a41628.206545 41628.206545 0 0 0-97.18691 91.679031c-29.602909 28.237576-63.906909 27.306667-101.841454 8.331636-42.728727-21.395394-81.159758-60.400485-115.494788-111.864242a650.612364 650.612364 0 0 1-48.407273-87.00897c-4.809697-10.379636-8.967758-20.014545-12.489697-28.687515-2.125576-5.244121-3.568485-9.014303-4.313212-11.108849l24.079515-4.220121c0 1.877333 0 5.430303 0.031031 10.410667 0.046545 8.316121 0.124121 17.578667 0.263757 27.554909 0.356848 28.485818 1.008485 56.971636 2.01697 83.533576 1.520485 40.091152 3.723636 72.145455 6.702545 92.935757 6.795636 47.693576 35.405576 64.341333 80.275394 60.043636 43.861333-4.189091 84.402424 47.755636 60.478061 71.726546-7.540364 7.571394-15.918545 9.495273-34.490182 11.077818-13.637818 1.163636-18.633697 2.218667-19.719757 3.304727-2.730667 2.730667-5.275152 11.139879-4.964849 20.511031a47.848727 47.848727 0 0 0 14.227394 32.504242c9.153939 9.153939 20.573091 13.808485 32.426667 14.227394 9.340121 0.341333 17.733818-2.234182 20.433454-4.949333 1.101576-1.086061 2.172121-6.11297 3.180606-18.214788 1.737697-20.154182 3.646061-28.532364 11.20194-36.088243 23.955394-24.001939 75.822545 16.647758 71.648969 60.540122-4.282182 44.962909 12.334545 73.619394 59.950546 80.430545 20.759273 2.978909 52.751515 5.182061 92.780606 6.718061a3339.791515 3339.791515 0 0 0 83.409454 2.016969 3816.463515 3816.463515 0 0 0 37.903516 0.294788L549.205333 883.122424c-2.07903-0.760242-5.849212-2.203152-11.093333-4.344242a641.241212 641.241212 0 0 1-28.64097-12.505212 649.076364 649.076364 0 0 1-86.884848-48.469334c-51.386182-34.397091-90.329212-72.874667-111.678061-115.665454-18.928485-37.981091-19.859394-72.300606 8.316121-101.950061 7.307636-7.695515 37.950061-40.277333 91.539394-97.34206l10.503758-11.186425 8.73503 12.613819c33.171394 47.895273 39.129212 107.923394 9.309091 153.351757-19.006061 28.966788 0.03103 45.040485 20.697212 24.343273 26.375758-26.422303 31.557818-98.304-1.784242-158.797576l-9.805576-17.795879 20.324849-0.605091a76.644848 76.644848 0 0 0 52.239515-22.465939 77.063758 77.063758 0 0 0 22.434909-57.219879l-1.024-31.418182 22.217697 22.248728 151.536485 151.753697 8.067878 8.098909-7.400727 8.719515c-52.441212 61.750303-58.926545 141.482667-16.244363 184.211394 45.971394 46.04897 134.050909 34.598788 196.390787-27.849697 62.370909-62.43297 73.805576-150.683152 27.803152-196.747637-40.96-41.022061-116.208485-36.724364-177.152 10.969213l-8.657455 6.780121-7.773091-7.788606-143.499636-143.701334-15.84097-15.887515 21.876364-4.980363c13.653333-3.118545 26.065455-9.867636 36.026182-19.859394a74.845091 74.845091 0 0 0 15.530667-82.664728l-12.288-28.315151 28.470303 11.915636a71.493818 71.493818 0 0 0 78.196363-15.344485 71.773091 71.773091 0 0 0 6.097455-94.223515l19.704242-15.127272a96.597333 96.597333 0 0 1-8.22303 126.898424zM862.580364 706.435879c42.139152-42.201212 53.077333-100.864 26.949818-127.038061-26.112-26.158545-84.650667-15.204848-126.789818 26.996364-42.139152 42.185697-53.061818 100.848485-26.934303 127.022545l-17.578667 17.532121c-37.515636-37.562182-23.769212-111.321212 26.949818-162.102303 50.734545-50.812121 124.38497-64.574061 161.916121-26.996363 37.515636 37.577697 23.769212 111.321212-26.934303 162.133333-50.734545 50.796606-124.400485 64.558545-161.931636 26.965333l17.578667-17.532121c26.112 26.158545 84.650667 15.204848 126.774303-26.980848zM438.116848 399.282424a40.184242 40.184242 0 0 0 0 56.738909 39.982545 39.982545 0 0 0 56.583758 0 40.153212 40.153212 0 0 0 0-56.738909l17.578667-17.532121a64.977455 64.977455 0 0 1 0 91.803152 64.806788 64.806788 0 0 1-91.725576 0 65.008485 65.008485 0 0 1 0-91.803152 64.791273 64.791273 0 0 1 91.725576 0l-17.578667 17.532121a39.96703 39.96703 0 0 0-56.583758 0zM550.632727 290.350545a37.500121 37.500121 0 0 0 0 52.984243 37.313939 37.313939 0 0 0 52.829091 0 37.484606 37.484606 0 0 0 0-52.968727l17.563152-17.547637a62.308848 62.308848 0 0 1 0 88.064 62.138182 62.138182 0 0 1-87.970909 0 62.324364 62.324364 0 0 1 0-88.064 62.122667 62.122667 0 0 1 87.970909 0l-17.563152 17.532121a37.298424 37.298424 0 0 0-52.829091 0zM664.855273 180.25503000000003a34.459152 34.459152 0 0 0 0 48.671031 34.288485 34.288485 0 0 0 48.546909 0 34.459152 34.459152 0 0 0 0-48.671031l17.563151-17.532121a59.283394 59.283394 0 0 1 0 83.750788 59.112727 59.112727 0 0 1-83.673212 0 59.283394 59.283394 0 0 1 0-83.750788 59.112727 59.112727 0 0 1 83.673212 0l-17.563151 17.532121a34.288485 34.288485 0 0 0-48.562424 0z"  horiz-adv-x="1024" />

    
    <glyph glyph-name="homeMoney" unicode="&#58885;" d="M570.801898 883.764068l-10.344135 10.344135-10.430916-10.24L9.615186 352.446915l20.688272-21.03539L570.715119 862.815458l-20.775051 0.086779L1083.166373 329.675932l20.86183 20.861831zM164.291254-97.73125400000004v-14.752543H948.709966v483.709831h-29.505085v-468.957288l14.752543 14.752542H179.043797l14.752542-14.752542v468.957288h-29.505085zM546.816 284.46372899999994l10.15322-9.285424 9.962305 9.476339 149.12217 141.659119-20.306441 21.399864-149.122169-141.659119 20.115525 0.17356-161.549017 147.872542-19.92461-21.764339zM528.158373-29.105898000000025h29.505085V291.145763h-29.505085zM716.626441 261.050576v29.505085H396.37478v-29.505085zM716.626441 121.92542400000002v29.505084H396.37478v-29.505084z"  horiz-adv-x="1110" />

    
    <glyph glyph-name="balance" unicode="&#58886;" d="M533.074581 547.443613a154.491871 154.491871 0 0 0-154.475355 154.491871 154.491871 154.491871 0 1 0 308.967226 0 154.475355 154.475355 0 0 0-154.491871-154.491871z m0 337.061161c-100.814452 0-182.552774-81.738323-182.552775-182.56929s81.738323-182.56929 182.552775-182.56929c100.847484 0 182.56929 81.738323 182.56929 182.56929S633.922065 884.504774 533.074581 884.504774zM141.163355-93.365677a101.574194 101.574194 0 1 0 0 203.181419 101.574194 101.574194 0 0 0 0-203.181419z m0 231.242322a129.651613 129.651613 0 1 1 0-259.303226 129.651613 129.651613 0 0 1 0 259.303226zM533.091097-93.365677a101.574194 101.574194 0 1 0 0 203.148387 101.574194 101.574194 0 0 0 0-203.148387z m0 231.242322a129.651613 129.651613 0 0 1-129.651613-129.651613 129.651613 129.651613 0 1 1 259.303226 0 129.651613 129.651613 0 0 1-129.651613 129.651613zM925.018839-93.365677a101.574194 101.574194 0 1 0 0 203.148387 101.574194 101.574194 0 0 0 0-203.148387z m0 231.242322a129.651613 129.651613 0 0 1-129.651613-129.651613 129.651613 129.651613 0 1 1 259.303226 0 129.651613 129.651613 0 0 1-129.651613 129.651613zM536.014452 391.993806c167.556129 0 318.133677-113.267613 370.787096-272.565677l26.673549 8.819613c-56.402581 170.595097-217.566968 291.823484-397.460645 291.823484-179.464258 0-341.223226-121.591742-397.923097-291.790452l26.640516-8.869161c52.95071 158.93471 204.139355 272.565677 371.282581 272.582193zM505.360516 129.68464500000005h28.077419V538.524903h-28.077419z"  horiz-adv-x="1057" />

    
    <glyph glyph-name="housing" unicode="&#58887;" d="M1268.263385 506.761846l63.271384-0.157538-54.941538 31.40923L666.486154 887.04l-8.408616 4.804923-8.36923-4.923077L59.470769 540.750769 6.557538 509.735385l61.341539-0.157539 1200.364308-2.796308z m-1191.857231 5.12l590.217846 346.190769-16.777846-0.098461 610.146461-349.006769 8.349539 31.271384-1200.364308 2.796308 8.428308-31.172923zM190.109538-2.599384999999984h33.476924l0.256 525.64677h-33.476924zM365.568-2.599384999999984h33.476923l0.256 524.996923-33.476923 0.019693zM515.997538-2.638769000000025h33.476924V523.500308h-33.476924zM692.184615-2.638769000000025h33.476923V523.500308h-33.476923zM850.766769-2.638769000000025h33.476923V523.500308h-33.476923zM1026.953846-2.638769000000025h33.476923V523.500308h-33.476923zM1262.355692-3.78092300000003v33.476923H51.003077v-33.476923zM1262.355692-109.48923100000002v33.476923H51.003077v-33.476923z"  horiz-adv-x="1339" />

    
    <glyph glyph-name="chimney" unicode="&#58888;" d="M261.12 860.304l-13.6 13.6V457.68H944.32l-13.6 13.6v-573.408l13.6 13.6H78.112l13.6-13.6V873.904l-13.6-13.6H261.12zM64.48 887.504V-115.72799999999995h893.44V484.88H261.104l13.6-13.6V887.52H64.496zM445.52 727.488l-13.6-13.6h158.592l-13.6 13.6v-250.096h27.2V741.088H418.32v-263.696h27.2zM267.2 257.77599999999995h61.008v61.008H267.2zM486.816 257.77599999999995h61.008v61.008h-61.008zM706.416 257.77599999999995h61.008v61.008h-61.008zM706.416 74.76800000000003h61.008v61.008h-61.008zM486.816 74.76800000000003h61.008v61.008h-61.008zM267.2 74.76800000000003h61.008v61.008H267.2z"  horiz-adv-x="1024" />

    
    <glyph glyph-name="shield" unicode="&#58889;" d="M881.387683 253.25307899999996c49.867175 134.257778 59.326984 275.878603 45.787428 402.285715-1.137778 10.662603-2.373079 20.154921-3.608381 28.363174-0.747683 4.973714-1.332825 8.452063-1.690413 10.32127l-2.064254 10.987683-11.166476 0.276317c-148.154921 3.738413-251.692698 29.874794-318.350222 70.704762-24.641016 15.11619-42.260317 31.077587-54.044444 46.811429-6.729143 8.988444-9.979937 15.571302-10.938921 18.659555L512.16254 884.540952l-13.246984-42.861714c-0.94273-3.055746-4.193524-9.589841-10.922667-18.529524-11.800381-15.652571-29.419683-31.548952-54.076952-46.583873-66.657524-40.618667-170.179048-66.64127-318.333969-70.363428l-11.166476-0.276318-2.064254-10.987682c-0.357587-1.869206-0.94273-5.36381-1.690413-10.337524-1.235302-8.208254-2.454349-17.716825-3.608381-28.395683-13.539556-126.488381-4.079746-268.190476 45.738667-402.529523 62.203937-167.740952 179.785143-297.025016 363.552508-371.890794l2.503111-1.024h6.550349l2.503111 1.007746c183.702349 74.865778 301.267302 203.971048 363.503747 371.484444zM512.682667-105.42323799999997v13.815873l-1.137778-13.815873 5.20127 12.791873C340.471873-20.788824999999974 228.286984 102.513778 168.683683 263.28177800000003c-48.111746 129.722921-57.295238 267.377778-44.162032 389.98146 1.10527 10.288762 2.275556 19.407238 3.445841 27.241651 0.698921 4.648635 1.235302 7.801905 1.527873 9.346032l-13.23073-11.264C268.921905 682.422857 377.092063 709.615746 448.284444 752.9650790000001c27.631746 16.822857 47.851683 35.076063 61.76508 53.556826 8.695873 11.540317 13.39327 20.951365 15.262476 26.981587l-26.412698 0.032508c1.869206-6.06273 6.550349-15.490032 15.229968-27.095365 13.913397-18.562032 34.133333-36.896508 61.732571-53.816889 71.176127-43.609397 179.378794-70.932317 332.084826-74.768254l-13.23073 11.264c0.292571-1.544127 0.828952-4.713651 1.527873-9.346032 1.170286-7.818159 2.356825-16.920381 3.445841-27.192889 13.14946-122.522413 3.949714-260.079746-44.210794-389.721396-59.63581-160.52419-171.804444-283.696762-348.013714-355.506794l5.20127-12.791873zM472.356571 246.54019000000005l9.427302-8.988444 9.524825 8.874667 232.431746 216.600381-18.854603 20.219936L472.486603 266.646349l18.952127-0.113778-128.568889 122.652445-19.082158-19.992381z"  horiz-adv-x="1024" />

    
    <glyph glyph-name="global" unicode="&#58890;" d="M511.527385-90.58461499999999c-262.333046 0-475.009969 212.676923-475.00997 475.041477 0 262.3488 212.676923 475.025723 475.025723 475.025723s475.025723-212.676923 475.025724-475.025723c0-262.364554-212.676923-475.041477-475.025724-475.041477z m0 976.848738C234.417231 886.264123 9.751631 661.598523 9.751631 384.472615c0-277.141662 224.6656-501.823015 501.807261-501.823015 277.141662 0 501.807262 224.6656 501.807262 501.823015C1013.3504 661.582769 788.6848 886.264123 511.543138 886.264123zM610.0992-87.29206199999999c20.952615 20.574523 41.7792 47.293046 61.124923 80.848739 54.791877 94.916923 87.512615 225.28 87.512615 396.398277 0 171.2128-33.161846 299.653908-88.694153 391.294031-19.676554 32.421415-40.833969 57.911138-62.117416 77.241107-13.028431 11.846892-23.410215 19.062154-29.774769 22.496493l-12.681846-23.599262c0.913723-0.472615 3.024738-1.764431 6.144-3.938461 5.466585-3.812431 11.626338-8.711877 18.305969-14.777108 19.392985-17.6128 38.912-41.117538 57.202215-71.317662 52.917169-87.276308 84.834462-210.912492 84.834462-377.399138 0-166.549662-31.570708-292.296862-83.920738-383.023262-18.116923-31.413169-37.462646-56.225477-56.713847-75.114338-6.616615-6.522092-12.744862-11.815385-18.179938-15.990154a80.943262 80.943262 0 0 0-6.144-4.411077l13.894892-22.890338c6.207015 3.780923 16.399754 11.610585 29.207631 24.182153zM464.612431-85.13378499999999c-5.498092 4.222031-11.6736 9.562585-18.384739 16.116185-19.408738 19.014892-38.927754 43.953231-57.233723 75.476677-52.822646 91.025723-84.661169 216.946215-84.661169 383.511631 0 166.470892 32.248123 290.390646 85.716677 378.171077 18.510769 30.373415 38.234585 54.082954 57.848123 71.8848 6.774154 6.144 12.996923 11.106462 18.526523 14.966153a76.563692 76.563692 0 0 0 6.238523 4.032985L459.917785 882.577723c-6.396062-3.465846-16.856615-10.775631-30.026831-22.717046-21.488246-19.503262-42.850462-45.182031-62.700308-77.776739-56.130954-92.144246-89.639385-220.900431-89.639384-392.11323 0-171.149785 33.020062-301.717662 88.284553-396.949662 19.534769-33.650215 40.534646-60.494769 61.660554-81.163815 12.918154-12.650338 23.189662-20.527262 29.443939-24.323939l13.894892 22.890339a82.502892 82.502892 0 0 0-6.222769 4.442584zM148.826585 697.832369c5.309046-3.702154 11.563323-7.813908 18.778584-12.224984a546.973538 546.973538 0 0 1 72.073846-36.627693c78.422646-33.146092 168.912738-53.011692 270.257231-53.011692 101.344492 0 192.417477 19.849846 271.816862 52.980185a567.185723 567.185723 0 0 1 73.129354 36.596184c7.341292 4.411077 13.7216 8.507077 19.125169 12.209231 3.308308 2.284308 5.592615 3.938462 6.852923 4.883692l-16.320985 21.267693c-0.866462-0.677415-2.756923-2.048-5.671384-4.048739-4.962462-3.402831-10.885908-7.215262-17.754585-11.342769a540.530215 540.530215 0 0 0-69.679262-34.847508c-76.248615-31.822769-163.855754-50.916431-261.498092-50.916431-97.610831 0-184.587815 19.093662-259.828184 50.884924a520.318031 520.318031 0 0 0-68.529231 34.816 335.4624 335.4624 0 0 0-17.376493 11.327015 140.6976 140.6976 0 0 0-5.5296 4.017231L142.099692 702.747569c1.2288-0.960985 3.465846-2.630892 6.711139-4.9152zM874.259692 70.87655400000006a362.039138 362.039138 0 0 1-18.778584 12.240738 546.957785 546.957785 0 0 1-72.073846 36.627693c-78.406892 33.146092-168.896985 53.011692-270.257231 53.011692-101.344492 0-192.401723-19.849846-271.801108-52.995939a567.169969 567.169969 0 0 1-73.145108-36.596184c-7.341292-4.411077-13.705846-8.507077-19.125169-12.209231-3.308308-2.268554-5.592615-3.938462-6.837169-4.883692l16.305231-21.251939c0.866462 0.677415 2.772677 2.048 5.671384 4.048739 4.962462 3.402831 10.901662 7.215262 17.770339 11.342769a540.514462 540.514462 0 0 0 69.663507 34.847508c76.264369 31.822769 163.871508 50.916431 261.498093 50.91643 97.610831 0 184.587815-19.093662 259.828184-50.884923a520.302277 520.302277 0 0 0 68.529231-34.831753c6.742646-4.111754 12.540062-7.924185 17.392246-11.311262 2.835692-1.984985 4.678892-3.371323 5.513846-4.032985l16.573047 21.062893c-1.2288 0.945231-3.465846 2.630892-6.726893 4.899446zM484.430769-101.407508h26.781539V871.439754h-26.781539zM996.462277 384.787692v26.781539H23.630769v-26.781539z"  horiz-adv-x="1024" />

    
    <glyph glyph-name="fangdajing" unicode="&#58891;" d="M513.701415 385.622646c-108.260431-107.567262-283.821292-107.567262-392.097477 0C13.390769 493.142646 13.390769 667.427446 121.619692 774.947446c108.276185 107.567262 283.837046 107.567262 392.097477 0 108.228923-107.52 108.228923-281.8048 0-389.3248zM101.628062 795.065108c-119.382646-118.626462-119.382646-310.949415 0-429.560123 119.319631-118.547692 312.7296-118.547692 432.064984 0 119.366892 118.626462 119.366892 310.949415 0 429.560123-119.335385 118.547692-312.745354 118.547692-432.064984 0zM430.662892 468.125538c-62.385231-62.007138-163.619446-62.007138-226.02043 0a157.885046 157.885046 0 0 0 0 224.319016c62.385231 61.991385 163.619446 61.991385 226.02043 0a157.885046 157.885046 0 0 0 0-224.319016zM184.650831 712.562215a186.241969 186.241969 0 0 1 0-264.554338c73.460185-72.987569 192.543508-72.987569 266.003692 0a186.241969 186.241969 0 0 1 0 264.554338c-73.460185 72.987569-192.543508 72.987569-266.003692 0zM614.273969 187.47076900000002l-10.129723-10.066707 10.129723-10.050954 282.482216-280.686277 9.987938-9.924923 10.003692 9.924923 98.871139 98.225231 10.129723 10.066707-10.129723 10.050954L733.120985 285.696l-9.987939 9.924923-9.987938-9.924923-98.871139-98.225231z m98.871139 78.107569L995.643077-15.10793799999999v20.117661l-98.886892-98.225231h19.99163L634.249846 187.47076900000002v-20.117661l98.855385 98.22523h-19.975877zM663.709538 216.45784600000002l19.991631 20.117662-158.200123 157.176123-19.975877-20.117662z"  horiz-adv-x="1039" />

    
    <glyph glyph-name="lock" unicode="&#58892;" d="M353.718857 805.270349C261.688889 757.223619 166.505651 719.384381 103.212698 707.909079l-11.361523-2.048v-11.540317c0-128.325079 15.717587-264.598349 59.164444-398.010921 64.203175-197.030603 177.818413-343.397587 352.028444-416.264127l5.331302-2.226793 5.331302 2.226793c174.210032 72.86654 287.857778 219.233524 352.028444 416.264127 43.463111 133.412571 59.164444 269.685841 59.164445 398.010921v11.540317l-11.34527 2.064254c-63.32546 11.459048-158.47619 49.298286-250.522413 97.345016C585.386667 845.758984 522.174984 889.270857 522.174984 896h-27.631746c0-45.478603 278.36546-190.70781 414.086095-215.267556l-11.377777 13.588318c0-125.675683-15.392508-259.250794-57.799112-389.445079-61.895111-190.008889-170.536635-329.955556-336.424634-399.327493h10.662603C347.834921-25.07987300000002 239.160889 114.83428600000002 177.282032 304.875683 134.875429 435.069968 119.466667 568.645079 119.466667 694.3207620000001l-11.361524-13.588318C243.825778 705.29219 522.174984 850.521397 522.174984 896h-27.631746c0-6.729143-63.195429-50.224762-140.824381-90.729651zM512 227.14920600000005a132.469841 132.469841 0 1 0 0 264.939683 132.469841 132.469841 0 0 0 0-264.939683z m0 292.571429c-88.421587 0-160.101587-71.68-160.101587-160.101587 0-88.421587 71.68-160.101587 160.101587-160.101588 88.421587 0 160.101587 71.68 160.101587 160.101588 0 88.421587-71.68 160.101587-160.101587 160.101587zM648.97219 518.631619c0 72.443937-59.261968 131.120762-132.274793 131.120762-73.029079 0-132.291048-58.676825-132.291048-131.120762v-78.279111h27.631746v78.279111c0 57.116444 46.827683 103.489016 104.659302 103.489016 57.815365 0 104.643048-46.372571 104.643047-103.489016v-78.279111h27.631746v78.279111zM512 324.67301599999996A34.946032 34.946032 0 1 0 546.946032 359.619048h27.631746a62.577778 62.577778 0 1 1-125.155556 0 62.577778 62.577778 0 0 1 125.155556 0h-27.631746A34.946032 34.946032 0 0 0 512 324.67301599999996z"  horiz-adv-x="1024" />

    
    <glyph glyph-name="manager" unicode="&#58893;" d="M215.328 376.096c0 62.144 50.96 112.56 113.92 112.56h371.792c62.928 0 113.904-50.432 113.904-112.56v-494.256h27.2v494.24c0 77.232-63.2 139.776-141.104 139.776H329.232c-77.904 0-141.104-62.528-141.104-139.76v-494.256h27.2v494.24zM570.88 431.792l-5.392 10.24 19.856-437.616 6.848 12.416-81.744-46.72h13.504l-81.744 46.72 6.832-12.416 19.872 437.616-5.392-10.24 61.872 46.72h-16.384l61.872-46.72z m-53.68 74.608l-8.192-6.176-61.872-46.72-5.104-3.84-0.288-6.4-19.872-437.616-0.368-8.304 7.2-4.128 81.76-46.72 6.72-3.84 6.768 3.84 81.728 46.72 7.216 4.128-0.368 8.304-19.872 437.616-0.288 6.4-5.12 3.84-61.856 46.72-8.192 6.176zM714.672 686.304c0 109.168-89.376 197.616-199.52 197.616-110.176 0-199.536-88.448-199.536-197.616 0-109.184 89.36-197.632 199.52-197.632 110.16 0 199.52 88.448 199.52 197.632z m-371.856 0c0 94.08 77.12 170.416 172.32 170.416 95.2 0 172.32-76.32 172.32-170.416s-77.12-170.432-172.32-170.432c-95.2 0-172.32 76.32-172.32 170.432z"  horiz-adv-x="1024" />

    
    <glyph glyph-name="dollar" unicode="&#58894;" d="M496.544439-125.93600800000002l27.628237 0.243778-9.344845 1021.69223-27.628237-0.26003zM265.783647 225.91772500000002l-13.814119-13.814119h106.514982l-13.814119 13.814119c0-49.974606 26.230574-83.746064 70.078212-102.614525 29.042153-12.481463 62.179787-17.227019 93.529711-17.227019 31.349924 0 64.487557 4.745556 93.52971 17.227019 43.847638 18.852209 70.06196 52.639919 70.061961 102.614525s-26.214322 83.762316-70.061961 102.614525c-29.042153 12.481463-62.179787 17.227019-93.52971 17.227019-146.185881 0-242.494667 79.95937-242.494667 198.988319 0 118.996445 96.308786 198.939563 242.478415 198.939563 146.202133 0 242.510919-79.943118 242.510919-198.939563l13.814119 13.814118h-106.531234l13.814119-13.814118c0 49.974606-26.214322 83.746064-70.061961 102.598273-29.042153 12.481463-62.179787 17.243271-93.52971 17.243271-31.366176 0-64.487557-4.761808-93.529711-17.243271-43.847638-18.852209-70.078212-52.623667-70.078212-102.598273 0-49.974606 26.230574-83.762316 70.078212-102.614526 29.042153-12.481463 62.179787-17.259523 93.529711-17.259522 146.185881 0 242.478415-79.943118 242.478415-198.955815 0-119.012697-96.292534-198.955815-242.478415-198.955815-146.185881 0-242.494667 79.95937-242.494667 198.955815z m512.617572 0c0 135.540884-109.700356 226.584053-270.122905 226.584053-76.708989 0-135.979685 25.482986-135.979685 92.24581 0 66.746572 59.254444 92.213306 135.979685 92.213306 76.708989 0 135.963433-25.466734 135.963433-92.213306v-13.814119H778.401219v13.814119c0 135.50838-109.700356 226.567801-270.122905 226.567801C347.855764 771.315389 238.155409 680.255967 238.155409 544.747588c0-135.540884 109.700356-226.600305 270.106653-226.600305 76.741493 0 135.979685-25.466734 135.979685-92.229558 0-66.746572-59.238192-92.229558-135.963433-92.229558s-135.979685 25.482986-135.979685 92.229558v13.814119H238.155409v-13.814119c0-135.524632 109.700356-226.584053 270.106653-226.584053 160.438801 0 270.139157 91.059421 270.139157 226.584053z"  horiz-adv-x="1024" />

    
    <glyph glyph-name="duigou" unicode="&#58895;" d="M414.861241-52.08275900000001l50.988138-53.28331 51.023449 53.318621L1310.155034 776.509793 1208.143448 874.213517 414.896552 45.62096599999995h102.011586L121.644138 458.434207l-102.046897-97.668414z"  horiz-adv-x="1341" />

    
    <glyph glyph-name="BlogGreen" unicode="&#58896;" d="M582.034286 896L0 574.72l586.678857-316.672 581.961143 316.708571L582.034286 896z m0-731.062857L51.163429 449.024l-32.548572-60.525714 563.419429-307.236572 568.027428 307.236572-41.910857 60.525714-526.116571-284.013714z m0-181.577143L55.844571 262.729143 18.578286 202.20342900000003 582.034286-109.71428600000002l568.027428 311.954286L1108.114286 267.33714299999997l-526.116572-284.013714z"  horiz-adv-x="1170" />

    
    <glyph glyph-name="contact-mail" unicode="&#58939;" d="M1025.763556 401.521778l377.457777 353.393778v-706.787556l-377.457777 353.393778zM157.752889-0.9671110000000454l367.502222 344.064 189.838222-177.834667c16.497778-15.36 41.927111-15.36 58.368 0l189.895111 177.834667 367.502223-344.064H157.752889zM85.333333 754.915556l377.457778-353.393778L85.333333 48.12800000000004V754.915556z m1252.579556 55.751111l-593.635556-555.804445L150.641778 810.666667h1187.271111z m150.414222 43.861333a43.008 43.008 0 0 1-3.015111 14.961778L1484.231111 871.367111l-7.224889 10.808889-2.56 2.389333L1464.32 891.448889l-2.730667 1.365333A42.154667 42.154667 0 0 1 1445.888 896H42.666667a42.154667 42.154667 0 0 1-15.644445-3.185778L24.291556 891.448889 14.108444 884.622222 11.548444 882.062222 4.323556 871.367111 3.242667 869.489778a43.008 43.008 0 0 1-3.015111-14.961778L0 853.390222v-897.024l0.455111-2.446222c-2.104889-23.210667 14.848-46.876444 42.211556-46.876444h1403.221333c27.363556 0 44.373333 23.665778 42.211556 46.876444l0.455111 2.446222V853.333333l-0.227556 1.194667z"  horiz-adv-x="1536" />

    
    <glyph glyph-name="location" unicode="&#58900;" d="M511.932268 896c-213.943865 0-387.880498-170.933833-387.880499-381.06211 0-164.815346 238.869364-485.098975 341.66447-620.247558a58.249807 58.249807 0 0 1 46.216029-22.690332c18.129688 0 35.491743 8.443964 46.328916 22.690332 102.704796 135.126006 341.709624 455.432213 341.709624 620.247558C899.970808 725.066167 725.89871 896 511.932268 896z m0-519.574733c-91.393496 0-165.786176 72.902569-165.786176 162.670489 0 89.722765 74.39268 162.738221 165.786176 162.73822 91.438651 0 165.718443-73.015456 165.718443-162.73822 0-89.76792-74.279793-162.670488-165.718443-162.670489z"  horiz-adv-x="1024" />

    


  </font>
</defs>
</svg>
